HIERARCHY
ROOT Hips
{
	OFFSET 0.000000 0.000000 0.000000
	CHANNELS 6 Xposition Yposition Zposition Xrotation Yrotation Zrotation
	JOINT LeftUpLeg_virtual
	{
		OFFSET 0.000000 0.000000 0.000000
		CHANNELS 3 Xrotation Yrotation Zrotation
		JOINT LeftUpLeg
		{
			OFFSET 15.427100 -6.655098 0.678600
			CHANNELS 3 Xrotation Yrotation Zrotation
			JOINT LeftLeg
			{
				OFFSET 4.081073 -39.591068 13.024000
				CHANNELS 3 Xrotation Yrotation Zrotation
				JOINT LeftFoot
				{
					OFFSET -4.081074 -37.707932 -15.979700
					CHANNELS 3 Xrotation Yrotation Zrotation
					JOINT LeftToeBase
					{
						OFFSET 5.346399 -15.068900 20.645000
						CHANNELS 3 Xrotation Yrotation Zrotation
						JOINT LeftToe_End
						{
							OFFSET 2.754700 0.931300 11.300900
							CHANNELS 3 Xrotation Yrotation Zrotation
							End Site
							{
								OFFSET 0 0 0
							}
						}
					}
				}
			}
		}
	}
	JOINT RightUpLeg_virtual
	{
		OFFSET 0.000000 0.000000 0.000000
		CHANNELS 3 Xrotation Yrotation Zrotation
		JOINT RightUpLeg
		{
			OFFSET -15.569500 -6.655098 0.678600
			CHANNELS 3 Xrotation Yrotation Zrotation
			JOINT RightLeg
			{
				OFFSET -4.081825 -39.591045 13.023800
				CHANNELS 3 Xrotation Yrotation Zrotation
				JOINT RightFoot
				{
					OFFSET 4.081824 -37.707954 -15.979600
					CHANNELS 3 Xrotation Yrotation Zrotation
					JOINT RightToeBase
					{
						OFFSET -5.346400 -15.068900 20.645000
						CHANNELS 3 Xrotation Yrotation Zrotation
						JOINT RightToe_End
						{
							OFFSET -2.754700 0.931300 11.300900
							CHANNELS 3 Xrotation Yrotation Zrotation
							End Site
							{
								OFFSET 0 0 0
							}
						}
					}
				}
			}
		}
	}
	JOINT Spine_virtual
	{
		OFFSET 0.000000 0.000000 0.000000
		CHANNELS 3 Xrotation Yrotation Zrotation
		JOINT Spine
		{
			OFFSET -0.279200 12.230698 -2.892100
			CHANNELS 3 Xrotation Yrotation Zrotation
			JOINT Spine1
			{
				OFFSET -0.232667 10.192268 -1.242267
				CHANNELS 3 Xrotation Yrotation Zrotation
				JOINT Spine1_split
				{
					OFFSET -0.232667 10.192268 -1.242267
					CHANNELS 3 Xrotation Yrotation Zrotation
					JOINT Spine2
					{
						OFFSET -0.232667 10.192268 -1.242267
						CHANNELS 3 Xrotation Yrotation Zrotation
						JOINT Neck_virtual
						{
							OFFSET 0.000000 0.000000 0.000000
							CHANNELS 3 Xrotation Yrotation Zrotation
							JOINT Neck
							{
								OFFSET -0.418800 17.814194 8.416900
								CHANNELS 3 Xrotation Yrotation Zrotation
								JOINT Head
								{
									OFFSET 0.000000 7.031097 3.806800
									CHANNELS 3 Xrotation Yrotation Zrotation
									JOINT HeadTop_End
									{
										OFFSET 0.000000 24.646606 12.978600
										CHANNELS 3 Xrotation Yrotation Zrotation
										End Site
										{
											OFFSET 0 0 0
										}
									}
								}
							}
						}
						JOINT LeftShoulder_virtual
						{
							OFFSET 0.000000 0.000000 0.000000
							CHANNELS 3 Xrotation Yrotation Zrotation
							JOINT LeftShoulder
							{
								OFFSET 8.476499 7.247704 -3.868750
								CHANNELS 3 Xrotation Yrotation Zrotation
								JOINT LeftShoulder_split
								{
									OFFSET 8.476499 7.247704 -3.868750
									CHANNELS 3 Xrotation Yrotation Zrotation
									JOINT LeftArm
									{
										OFFSET 9.308998 -2.777710 0.208600
										CHANNELS 3 Xrotation Yrotation Zrotation
										JOINT LeftForeArm
										{
											OFFSET 29.972298 0.000000 0.000000
											CHANNELS 3 Xrotation Yrotation Zrotation
											JOINT LeftHand
											{
												OFFSET 26.026505 0.000000 0.000000
												CHANNELS 3 Xrotation Yrotation Zrotation
												End Site
												{
													OFFSET 0 0 0
												}
											}
										}
									}
								}
							}
						}
						JOINT RightShoulder_virtual
						{
							OFFSET 0.000000 0.000000 0.000000
							CHANNELS 3 Xrotation Yrotation Zrotation
							JOINT RightShoulder
							{
								OFFSET -7.570500 7.247704 -3.868750
								CHANNELS 3 Xrotation Yrotation Zrotation
								JOINT RightShoulder_split
								{
									OFFSET -7.570500 7.247704 -3.868750
									CHANNELS 3 Xrotation Yrotation Zrotation
									JOINT RightArm
									{
										OFFSET -9.308998 -2.777710 0.208500
										CHANNELS 3 Xrotation Yrotation Zrotation
										JOINT RightForeArm
										{
											OFFSET -29.972300 0.000000 0.000000
											CHANNELS 3 Xrotation Yrotation Zrotation
											JOINT RightHand
											{
												OFFSET -26.026505 0.000000 0.000000
												CHANNELS 3 Xrotation Yrotation Zrotation
												End Site
												{
													OFFSET 0 0 0
												}
											}
										}
									}
								}
							}
						}
					}
				}
			}
		}
	}
}
MOTION
Frames: 11
Frame Time: 0.03333333
6.419739 79.584396 -8.092850 0.000000 0.000000 0.000000 -1.493840 -64.782889 -0.489288 -41.416447 23.112103 41.899099 52.531968 2.231198 -0.366500 5.058012 5.804419 -8.305607 -0.327386 0.913290 -3.948393 0.000000 0.000000 0.000000 0.253348 -62.464033 0.839382 -25.328150 -22.497940 -31.384395 37.436216 5.315275 -0.527664 -10.788641 -3.237921 15.248387 -1.593299 1.170992 0.593995 0.000000 0.000000 0.000000 -0.507544 -62.175082 -0.320340 8.060809 1.381315 -5.329344 2.288676 0.875172 -2.626796 1.942021 3.425117 -1.239933 0.000000 0.000000 0.000000 2.542284 -0.095973 -2.831545 0.355034 0.951313 1.893908 0.074268 43.906464 -7.233744 0.000000 0.000000 0.000000 3.327836 0.382617 -2.555667 9.817840 9.823146 1.832950 -0.943725 -1.691513 4.754150 6.760251 -6.064134 -60.451525 -19.396083 -44.244487 -10.480334 0.000000 0.000000 0.000000 2.981796 0.276057 -3.096249 0.579228 2.222921 1.984458 4.074911 2.186375 1.323388 18.901722 20.396237 56.344300 -3.289405 45.378800 2.867468 0.000000 0.000000 0.000000 
6.035806 78.732681 -7.144463 0.000000 0.000000 0.000000 1.932125 -68.344546 3.056138 -41.041838 18.594915 38.861577 51.364341 0.462683 0.719446 3.474803 2.051214 -11.363246 -0.743699 0.617071 -1.978873 0.000000 0.000000 0.000000 3.580081 -66.946058 4.405932 -27.397116 -19.682010 -31.242808 37.187617 6.917335 -0.536646 -11.470689 -2.012884 16.612632 -0.120287 1.585360 -0.458383 0.000000 0.000000 0.000000 2.333880 -66.873624 2.765644 8.188153 1.739134 -6.609786 1.991570 1.534762 -3.308127 1.190410 2.371213 -0.185807 0.000000 0.000000 0.000000 2.362753 0.394457 -3.488235 0.762100 1.356351 1.638250 -0.077735 47.283392 -6.972195 0.000000 0.000000 0.000000 2.890996 0.758072 -3.272695 8.472543 9.083805 -0.611457 0.073648 -0.024235 4.993133 -1.722436 0.648427 -56.295597 -13.840618 -41.224256 -6.109255 0.000000 0.000000 0.000000 2.477827 0.667741 -3.650950 0.155838 1.787045 1.956919 3.350505 3.416856 1.709438 17.373394 18.579180 58.955270 -4.421861 37.670870 3.478164 0.000000 0.000000 0.000000 
5.688253 77.945724 -6.039696 0.000000 0.000000 0.000000 6.507953 -71.354078 7.700241 -40.392192 14.827513 35.281414 49.184879 -1.607409 1.453077 0.532801 -0.650085 -14.335654 -1.805914 0.222890 0.180744 0.000000 0.000000 0.000000 7.485790 -70.845755 8.634471 -29.182465 -16.083707 -30.967924 37.734989 8.171115 -0.770959 -11.610515 -1.293691 17.395717 0.310610 1.621808 -0.597765 0.000000 0.000000 0.000000 5.945385 -70.810613 6.507591 8.579512 1.867272 -7.775156 1.993632 2.002097 -3.852618 0.754345 1.582319 0.423827 0.000000 0.000000 0.000000 2.290410 0.803811 -4.037355 0.824007 1.707998 1.528208 -1.017525 50.606224 -6.524611 0.000000 0.000000 0.000000 2.623823 1.065523 -3.878620 7.209125 8.199469 -2.561692 1.226644 1.422037 5.277223 -9.110067 6.474908 -52.019837 -9.892340 -40.619070 -3.454419 0.000000 0.000000 0.000000 2.277665 1.012935 -4.074277 -0.120547 1.770334 2.126276 3.155087 4.660288 1.569272 16.077758 15.932874 60.780815 -5.616155 31.174674 4.261976 0.000000 0.000000 0.000000 
5.389107 77.263878 -4.823956 0.000000 0.000000 0.000000 11.144644 -73.420060 12.349522 -39.423476 12.274372 31.836861 46.580688 -3.047951 1.594026 -3.433115 -1.221527 -16.113273 -2.519162 -0.013381 1.375008 0.000000 0.000000 0.000000 11.098963 -73.740198 12.586605 -30.416496 -12.783080 -30.959164 38.615680 9.089105 -1.115583 -11.408555 -0.894856 17.986420 0.151190 1.364943 -0.026557 0.000000 0.000000 0.000000 9.053292 -73.464989 9.783047 9.254010 1.784251 -8.615853 2.342740 2.241118 -4.173726 0.895553 0.992445 1.085591 0.000000 0.000000 0.000000 2.410816 1.096694 -4.398337 0.437397 1.982003 1.525576 -2.757235 53.589688 -5.879924 0.000000 0.000000 0.000000 2.641752 1.300192 -4.287366 6.130593 7.045869 -4.218803 2.393663 2.140016 5.411287 -15.138805 11.059482 -48.041870 -7.009188 -41.595312 -1.806859 0.000000 0.000000 0.000000 2.432224 1.267774 -4.335249 -0.213162 2.156356 2.508076 3.456161 5.490603 1.115159 15.488149 13.044182 61.133007 -6.896408 26.982770 5.199613 0.000000 0.000000 0.000000 
5.177126 76.803688 -3.468391 0.000000 0.000000 0.000000 14.605215 -74.592318 15.652724 -38.327600 10.832264 29.217814 44.268672 -3.575463 1.158901 -6.896269 0.102526 -16.946229 -1.833579 0.094313 0.881452 0.000000 0.000000 0.000000 13.444509 -75.523560 15.098400 -30.765446 -10.769481 -31.533327 39.001446 9.750979 -1.446253 -11.233826 -0.486047 18.790284 0.035187 0.992766 0.787267 0.000000 0.000000 0.000000 10.876106 -75.014984 11.745621 10.091839 1.545581 -8.973601 2.974684 2.264834 -4.244283 0.764716 0.855174 1.280809 0.000000 0.000000 0.000000 2.773091 1.239405 -4.517474 -0.292064 2.193444 1.546297 -5.017793 55.929769 -5.175874 0.000000 0.000000 0.000000 2.961783 1.435852 -4.464723 5.279028 5.690586 -5.755600 2.880471 1.604244 5.187943 -19.381483 14.529385 -44.696847 -5.068496 -43.073997 -0.829633 0.000000 0.000000 0.000000 2.894390 1.403114 -4.396221 -0.141430 2.764474 3.155811 4.166448 5.612145 0.188051 15.523435 10.248565 60.297525 -8.330997 25.716267 6.329518 0.000000 0.000000 0.000000 
4.990110 76.706039 -2.422260 0.000000 0.000000 0.000000 15.864918 -74.904472 16.656325 -37.436530 9.986281 27.616448 42.724367 -3.776720 0.634828 -8.236766 2.198217 -17.978491 -0.776868 0.452303 -0.766130 0.000000 0.000000 0.000000 14.013736 -76.080323 15.558874 -30.169516 -10.404689 -32.639531 38.300310 10.267351 -1.726384 -11.288754 0.041732 20.113558 0.221219 0.655758 1.400485 0.000000 0.000000 0.000000 11.047181 -75.441871 12.023797 10.927345 1.191888 -8.842203 3.770779 2.119488 -4.098325 0.850801 1.039635 1.102347 0.000000 0.000000 0.000000 3.362738 1.224950 -4.395961 -1.240893 2.328209 1.519968 -7.481513 57.551570 -4.528546 0.000000 0.000000 0.000000 3.529552 1.465868 -4.409279 4.643463 4.134346 -7.268105 2.468036 0.490529 4.553305 -22.302637 17.157649 -42.240861 -3.715356 -44.303940 -0.216910 0.000000 0.000000 0.000000 3.601329 1.417271 -4.264475 0.061275 3.370459 3.914625 4.941451 5.218900 -0.790906 15.939250 7.450276 58.888907 -10.008141 27.054548 7.713795 0.000000 0.000000 0.000000 
4.712822 76.998917 -1.481522 0.000000 0.000000 0.000000 15.088074 -74.492065 15.658043 -36.683672 9.736564 26.904650 41.806242 -4.368563 0.319099 -7.807291 3.746296 -19.287228 -0.930195 0.715085 -1.838339 0.000000 0.000000 0.000000 13.190087 -75.628731 14.476929 -28.901228 -11.626504 -33.914000 36.576080 10.657137 -1.934561 -11.469853 0.624615 21.918470 0.402904 0.461334 1.534579 0.000000 0.000000 0.000000 10.214904 -74.851415 11.241489 11.572115 0.795460 -8.326412 4.561368 1.889263 -3.828460 0.719752 1.464891 0.560751 0.000000 0.000000 0.000000 4.107036 1.074762 -4.108171 -2.193558 2.401392 1.439632 -9.806312 58.387353 -3.970050 0.000000 0.000000 0.000000 4.180306 1.397295 -4.193373 4.148726 2.478809 -8.788388 1.381310 -0.866464 4.258477 -24.453097 19.461555 -40.398073 -2.754019 -45.141379 0.141203 0.000000 0.000000 0.000000 4.378586 1.317119 -4.008577 0.381318 3.788005 4.893971 5.584837 4.659350 -1.464595 16.435175 4.788196 57.709450 -11.840498 30.032502 9.307331 0.000000 0.000000 0.000000 
4.401783 77.652290 -0.754261 0.000000 0.000000 0.000000 13.720610 -73.483082 14.126668 -36.067715 10.241742 26.795030 40.673370 -5.472875 0.245529 -6.791650 4.164363 -20.306707 -1.900710 0.710901 -1.812083 0.000000 0.000000 0.000000 11.560246 -74.487666 12.659354 -27.419294 -13.851075 -35.101128 34.304557 10.830514 -2.175413 -11.709115 1.091885 23.848213 0.241304 0.419574 1.222665 0.000000 0.000000 0.000000 9.729884 -73.620444 10.698806 11.989268 0.395519 -7.630638 5.194677 1.632808 -3.551882 0.443938 2.146143 -0.227311 0.000000 0.000000 0.000000 4.817979 0.843634 -3.764487 -2.938923 2.280959 1.438917 -11.766129 58.426763 -3.377821 0.000000 0.000000 0.000000 4.728115 1.265793 -3.897209 3.730262 0.848995 -10.216577 0.259890 -2.051115 4.624450 -26.824576 21.510626 -38.937423 -1.860892 -45.641616 0.429589 0.000000 0.000000 0.000000 5.067100 1.137251 -3.722972 0.783778 3.994646 6.082818 6.108782 4.524057 -1.653048 16.859359 2.302354 57.390275 -13.712673 33.529259 11.027114 0.000000 0.000000 0.000000 
4.007219 78.546822 -0.481129 0.000000 0.000000 0.000000 12.276963 -71.938448 12.640504 -35.772740 11.299746 26.871566 38.956981 -7.079469 0.408011 -6.082476 3.478783 -20.919124 -2.694515 0.467111 -0.979734 0.000000 0.000000 0.000000 9.802124 -72.856754 10.966439 -26.129100 -16.363718 -35.885387 32.072806 10.575651 -2.443481 -11.970469 1.122190 25.234643 -0.135035 0.472672 0.722482 0.000000 0.000000 0.000000 9.735534 -71.762113 10.551089 12.239688 0.008099 -6.929690 5.609930 1.394545 -3.353765 0.541420 2.687689 -0.633784 0.000000 0.000000 0.000000 5.321674 0.581250 -3.459580 -3.447168 1.902104 1.645714 -13.287683 57.700851 -2.608794 0.000000 0.000000 0.000000 5.058352 1.093720 -3.603439 3.363047 -0.606737 -11.368369 -0.637899 -3.066310 5.122975 -29.688278 23.500480 -37.587914 -0.955795 -45.995689 0.635004 0.000000 0.000000 0.000000 5.547657 0.887180 -3.520791 1.250238 4.017097 7.317764 6.446175 5.044946 -1.353083 17.155519 0.073041 57.951990 -15.365175 36.516473 12.621682 0.000000 0.000000 0.000000 
3.606355 79.532318 -0.369236 0.000000 0.000000 0.000000 11.279834 -70.026897 11.620553 -35.631294 12.637814 26.825238 36.635519 -8.682169 0.592421 -6.078458 2.307830 -20.821596 -2.977797 0.044307 0.371894 0.000000 0.000000 0.000000 8.444597 -71.029705 9.897070 -25.283009 -18.706534 -36.217245 29.899098 9.712462 -2.717209 -12.337254 0.618546 25.639448 -0.521840 0.555947 0.257414 0.000000 0.000000 0.000000 10.252834 -69.489785 10.782878 12.418462 -0.367743 -6.343234 5.813057 1.136516 -3.240904 0.603999 3.142973 -0.861117 0.000000 0.000000 0.000000 5.560854 0.351059 -3.248229 -3.671412 1.261455 2.209670 -14.521218 56.358524 -1.570475 0.000000 0.000000 0.000000 5.171006 0.904941 -3.344802 3.042479 -1.652972 -12.095449 -0.838672 -4.145083 5.835894 -32.543717 25.391985 -36.241817 -0.112028 -46.810022 0.702598 0.000000 0.000000 0.000000 5.786587 0.604521 -3.434678 1.763445 3.880949 8.320320 6.815966 5.934460 -1.160460 17.118894 -1.827628 59.176144 -16.713937 38.617688 13.953643 0.000000 0.000000 0.000000 
3.197203 80.514496 -0.348103 0.000000 0.000000 0.000000 11.124388 -68.316017 11.430311 -35.613020 13.929264 26.450201 34.010285 -9.545287 0.653634 -6.383608 1.473804 -19.988882 -3.006104 -0.399323 1.752762 0.000000 0.000000 0.000000 7.876170 -69.115743 9.655850 -25.039427 -20.467587 -36.291636 28.125382 8.500986 -3.019950 -12.457254 -0.196490 25.323650 -0.759559 0.593220 0.022183 0.000000 0.000000 0.000000 10.773866 -67.180293 11.015249 12.653003 -0.739291 -5.943367 5.867022 0.868985 -3.195863 0.845046 3.187316 -0.835298 0.000000 0.000000 0.000000 5.562720 0.181529 -3.111329 -3.616262 0.452431 3.090055 -15.526850 54.703169 -0.330262 0.000000 0.000000 0.000000 5.136170 0.699917 -3.120316 2.769502 -2.194965 -12.246538 -0.519267 -5.082974 6.173244 -34.981633 26.876800 -34.948446 0.612792 -47.972742 0.694154 0.000000 0.000000 0.000000 5.792757 0.324806 -3.408045 2.254141 3.618125 8.854948 7.249707 6.783952 -1.072247 16.689851 -3.294711 60.662981 -17.810618 40.102178 15.060854 0.000000 0.000000 0.000000 
